# xmcd
#
# Track frame offsets:
#        150
#        24425
#        50587
#
# Disc length: 996 seconds
#
# Revision: 0
# Processed by: cddbd v1.5.1PL0 Copyright (c) Steve Scherf et al.
# Submitted via: ExactAudioCopy v0.95a5
#
DISCID=1d03e203
DTITLE=Suzuki - Byakuya
DYEAR=1996
DGENRE=JPop
TTITLE0=1
TTITLE1=2
TTITLE2=3
EXTD=
EXTT0=
EXTT1=
EXTT2=
PLAYORDER=
